<svg xmlns="http://www.w3.org/2000/svg" viewBox="0 0 24 24" height="24" width="24"><defs></defs><title>dating-smartphone-chat</title><path d="M11.5 19.5v2a2.006 2.006 0 0 1 -2 2h-7a2.006 2.006 0 0 1 -2 -2v-2Z" fill="#ffffff" stroke-width="1"></path><path d="M0.5 8.5h11v11H0.5Z" fill="#9feaff" stroke-width="1"></path><path d="M11.5 6.5v2H0.5v-2a2.006 2.006 0 0 1 2 -2h7a2.006 2.006 0 0 1 2 2Z" fill="#ffffff" stroke-width="1"></path><path d="M11.5 14.5v7a2 2 0 0 1 -2 2h-7a2 2 0 0 1 -2 -2v-15a2 2 0 0 1 2 -2h3" stroke="#00303e" stroke-linecap="round" stroke-linejoin="round" fill="none" stroke-width="1"></path><path d="m5.5 8.5 -5 0" stroke="#00303e" stroke-linecap="round" stroke-linejoin="round" fill="none" stroke-width="1"></path><path d="m11.5 19.5 -11 0" stroke="#00303e" stroke-linecap="round" stroke-linejoin="round" fill="none" stroke-width="1"></path><path d="m4.5 6.5 1 0" stroke="#00303e" stroke-linecap="round" stroke-linejoin="round" fill="none" stroke-width="1"></path><path d="M23.5 8A1.5 1.5 0 0 1 22 9.5h-5.5l-3 3v-3H10A1.5 1.5 0 0 1 8.5 8V2A1.5 1.5 0 0 1 10 0.5h12A1.5 1.5 0 0 1 23.5 2Z" fill="#ffffff" stroke-width="1"></path><path d="M22 0.5h-0.874a4.565 4.565 0 0 1 -3.771 7.143h-6.662A4.517 4.517 0 0 1 8.5 7.059V8A1.5 1.5 0 0 0 10 9.5h3.5v3l3 -3H22A1.5 1.5 0 0 0 23.5 8V2A1.5 1.5 0 0 0 22 0.5Z" fill="#dff9ff" stroke-width="1"></path><path d="M23.5 8A1.5 1.5 0 0 1 22 9.5h-5.5l-3 3v-3H10A1.5 1.5 0 0 1 8.5 8V2A1.5 1.5 0 0 1 10 0.5h12A1.5 1.5 0 0 1 23.5 2Z" stroke="#00303e" stroke-linecap="round" stroke-linejoin="round" fill="none" stroke-width="1"></path><path d="M15.691 7.262a0.491 0.491 0 0 0 0.618 0c0.719 -0.574 2.441 -2.071 2.441 -3.242 0 -1.71 -2.25 -2.25 -2.75 -0.172 -0.5 -2.078 -2.75 -1.538 -2.75 0.172 0 1.171 1.722 2.668 2.441 3.242Z" fill="#9feaff" stroke="#00303e" stroke-linecap="round" stroke-linejoin="round" stroke-width="1"></path><path d="M6 21.25a0.25 0.25 0 0 1 0.25 0.25" stroke="#00303e" stroke-linecap="round" stroke-linejoin="round" fill="none" stroke-width="1"></path><path d="M5.75 21.5a0.25 0.25 0 0 1 0.25 -0.25" stroke="#00303e" stroke-linecap="round" stroke-linejoin="round" fill="none" stroke-width="1"></path><path d="M6 21.75a0.25 0.25 0 0 1 -0.25 -0.25" stroke="#00303e" stroke-linecap="round" stroke-linejoin="round" fill="none" stroke-width="1"></path><path d="M6.25 21.5a0.25 0.25 0 0 1 -0.25 0.25" stroke="#00303e" stroke-linecap="round" stroke-linejoin="round" fill="none" stroke-width="1"></path></svg>